<svg id="icons" xmlns="http://www.w3.org/2000/svg" viewBox="0 0 110 110"><title>pumpkin</title><circle cx="55" cy="55" r="55" fill="#ffd147"/><g id="pumpkin"><path d="M55,80a19.88,19.88,0,0,1-11.14-3.4l2.29,1.71-3.81-.51A20,20,0,0,1,45,38a19.79,19.79,0,0,1,5.15.69l3.69,1-3.22.82q.58-.13,1.18-.23l.75,1.79a22.49,22.49,0,0,1,2-1.26l.5-.29.5.29a22.49,22.49,0,0,1,2,1.26l.74-1.79q.75.12,1.48.3l-3.52-.88,3.72-1A19.78,19.78,0,0,1,65,38a20,20,0,0,1,2.66,39.8l-3.81.51,2.29-1.71A19.88,19.88,0,0,1,55,80ZM75,60a19.88,19.88,0,0,1-3,10.42A19.78,19.78,0,0,0,75,60ZM35,61A19.73,19.73,0,0,0,38,70.46,19.87,19.87,0,0,1,35,61Zm5.64-14.91a19.93,19.93,0,0,0-4,6A20,20,0,0,1,40.67,46.09Zm19.77-5.33a20.07,20.07,0,0,1,11.93,9.36h0A20,20,0,0,0,60.44,40.76Z" fill="#fff"/><path d="M28,58A19,19,0,0,1,47,39H67c10.48,0,18,8.52,18,19,0,17.5-20.45,21.11-28.81,22C45.77,81,39.34,73,44.47,76.81A19,19,0,0,1,28,58Z" fill="#f2633a"/><path d="M55,40s-4-1-4-11h6s-3,10,2,10" fill="#fff"/><path d="M57,40s-3,3-3-11h3s-1.51,5.08,0,8c.61,1.18,2.55,2,4,2Z" fill="#ffd147"/><path d="M55,40s-4-1-4-11h6s-3,10,2,10" fill="none" stroke="#6e2a27" stroke-linecap="round" stroke-linejoin="round" stroke-width="2"/><path d="M53.81,40.06A20,20,0,1,0,45,78c.42,0,.83,0,1.24,0" fill="none" stroke="#6e2a27" stroke-miterlimit="10" stroke-width="2"/><path d="M63.76,78c.41,0,.82,0,1.24,0a20,20,0,1,0-8.81-37.94" fill="none" stroke="#6e2a27" stroke-linecap="round" stroke-miterlimit="10" stroke-width="2"/><path d="M35,60a20,20,0,1,0,38.72-7" fill="none" stroke="#6e2a27" stroke-linejoin="round" stroke-width="2"/><path d="M35.66,55a19.84,19.84,0,0,0-.55,3" fill="none" stroke="#6e2a27" stroke-linejoin="round" stroke-width="2"/><path d="M72.84,51a20,20,0,0,0-36.56,2" fill="none" stroke="#6e2a27" stroke-linejoin="round" stroke-width="2"/><ellipse cx="55" cy="60" rx="10" ry="20" fill="none" stroke="#6e2a27" stroke-miterlimit="10" stroke-width="2"/><path d="M51,39l-3.4-4.25a2.41,2.41,0,0,0-1.54-.88l-.86-.12A2.41,2.41,0,0,1,44,29.54h0c1.57-1.37,1.11-3.28-1-3.54" fill="none" stroke="#6e2a27" stroke-linecap="round" stroke-linejoin="round" stroke-width="2"/></g></svg>